<?xml version="1.0" encoding="UTF-8" standalone="no"?><!DOCTYPE svg PUBLIC "-//W3C//DTD SVG 1.1//EN" "http://www.w3.org/Graphics/SVG/1.1/DTD/svg11.dtd"><svg width="100%" height="100%" viewBox="0 0 1946 1304" version="1.1" xmlns="http://www.w3.org/2000/svg" xmlns:xlink="http://www.w3.org/1999/xlink" xml:space="preserve" xmlns:serif="http://www.serif.com/" style="fill-rule:evenodd;clip-rule:evenodd;stroke-linejoin:round;stroke-miterlimit:2;"><circle cx="956.686" cy="713.309" r="310.051" style="fill:#4f77bd;"/><path d="M1795.52,198.905c65.532,3.097 117.803,52.188 117.803,119.563l-0,49.169l-117.803,-0l0,-168.732Zm0,283.759l117.803,0l-0,633.508c-0,69.361 -55.397,125.673 -123.63,125.673l-1626.62,0c-60.396,0 -110.735,-44.119 -121.502,-102.355l1753.95,0l0,-656.826Z" style="fill:#244b90;"/><path d="M26.217,369.311l-0,-48.369c-0,-68.234 55.396,-123.63 123.63,-123.63l1626.62,-0c68.233,-0 123.629,55.396 123.629,123.63l0,48.369l-710.444,-0c-65.001,-42.909 -142.854,-67.895 -226.497,-67.895c-83.644,0 -161.497,24.986 -226.498,67.895l-710.444,-0Zm1752.24,-114.292c-0,-11.23 -9.118,-20.347 -20.348,-20.347l-134.134,-0c-11.23,-0 -20.347,9.117 -20.347,20.347l-0,40.695c-0,11.23 9.117,20.347 20.347,20.347l134.134,0c11.23,0 20.348,-9.117 20.348,-20.347l-0,-40.695Zm121.639,227.449l0,623.208c0,68.233 -55.396,123.63 -123.629,123.63l-1626.62,-0c-68.234,-0 -123.63,-55.397 -123.63,-123.63l-0,-623.208l595.85,0c-44.684,65.863 -70.801,145.326 -70.801,230.841c0,227.329 184.563,411.892 411.893,411.892c227.329,0 411.892,-184.563 411.892,-411.892c-0,-85.515 -26.116,-164.978 -70.801,-230.841l595.85,0Z" style="fill:#4f77bd;"/><path d="M392.493,146.581l0,56.778c0,15.668 -12.72,28.389 -28.389,28.389l-135.571,-0c-15.668,-0 -28.389,-12.721 -28.389,-28.389l-0,-56.778c-0,-15.668 12.721,-28.389 28.389,-28.389l135.571,0c15.669,0 28.389,12.721 28.389,28.389Z" style="fill:#4f77bd;"/><path d="M1152.62,101.97l-0,88.064c-0,24.301 -19.73,44.031 -44.032,44.031l-312.857,0c-24.302,0 -44.032,-19.73 -44.032,-44.031l0,-88.064c0,-24.302 19.73,-44.032 44.032,-44.032l312.857,0c24.302,0 44.032,19.73 44.032,44.032Z" style="fill:#4f77bd;"/></svg>